<svg width="40" height="40" viewBox="0 0 40 40" fill="none" xmlns="http://www.w3.org/2000/svg">
<path d="M0 20C0 8.95431 8.95431 0 20 0C31.0457 0 40 8.95431 40 20C40 31.0457 31.0457 40 20 40C8.95431 40 0 31.0457 0 20Z" fill="#EAECF5"/>
<path d="M20.8333 11.6667H14.9999C14.5579 11.6667 14.134 11.8423 13.8214 12.1548C13.5088 12.4674 13.3333 12.8913 13.3333 13.3333V26.6667C13.3333 27.1087 13.5088 27.5326 13.8214 27.8452C14.134 28.1577 14.5579 28.3333 14.9999 28.3333H24.9999C25.4419 28.3333 25.8659 28.1577 26.1784 27.8452C26.491 27.5326 26.6666 27.1087 26.6666 26.6667V17.5M20.8333 11.6667L26.6666 17.5M20.8333 11.6667V17.5H26.6666" stroke="#3E4784" stroke-width="1.66667" stroke-linecap="round" stroke-linejoin="round"/>
</svg>
