<svg width="24" height="24" viewBox="0 0 24 24" fill="none" xmlns="http://www.w3.org/2000/svg">
<rect width="24" height="24" rx="4" fill="#2577B1"/>
<path fill-rule="evenodd" clip-rule="evenodd" d="M11.3333 10.8333C10.8728 10.8333 10.5 11.2061 10.5 11.6666V15.3333C10.5 15.7938 10.8728 16.1666 11.3333 16.1666H14C14.0987 16.1666 14.1952 16.1959 14.2774 16.2506L15.5 17.0657V16.6666C15.5 16.3905 15.7239 16.1666 16 16.1666H16.6667C17.1272 16.1666 17.5 15.7938 17.5 15.3333V11.6666C17.5 11.2061 17.1272 10.8333 16.6667 10.8333H11.3333ZM9.5 11.6666C9.5 10.6538 10.3205 9.83331 11.3333 9.83331H16.6667C17.6795 9.83331 18.5 10.6538 18.5 11.6666V15.3333C18.5 16.3461 17.6795 17.1666 16.6667 17.1666H16.5V18C16.5 18.1844 16.3985 18.3538 16.2359 18.4408C16.0734 18.5278 15.8761 18.5183 15.7227 18.416L13.8486 17.1666H11.3333C10.3205 17.1666 9.5 16.3461 9.5 15.3333V11.6666Z" fill="white"/>
<path fill-rule="evenodd" clip-rule="evenodd" d="M5.5 7.62333C5.5 6.45052 6.45052 5.5 7.62333 5.5H14.116C15.2888 5.5 16.2393 6.45052 16.2393 7.62333V10.3333C16.2393 10.6095 16.0155 10.8333 15.7393 10.8333C15.4632 10.8333 15.2393 10.6095 15.2393 10.3333V7.62333C15.2393 7.00281 14.7365 6.5 14.116 6.5H7.62333C7.00281 6.5 6.5 7.00281 6.5 7.62333V12.0873C6.5 12.7079 7.00281 13.2107 7.62333 13.2107H8.43467C8.71081 13.2107 8.93467 13.4345 8.93467 13.7107V14.3992L9.72269 13.8739C9.95247 13.7208 10.2629 13.7829 10.4161 14.0127C10.5692 14.2425 10.5071 14.5529 10.2773 14.7061L8.71198 15.7494C8.55855 15.8517 8.36128 15.8612 8.19872 15.7742C8.03615 15.6871 7.93467 15.5177 7.93467 15.3333V14.2107H7.62333C6.45052 14.2107 5.5 13.2601 5.5 12.0873V7.62333Z" fill="white"/>
</svg>
